<svg width="32" height="32" viewBox="0 0 32 32" fill="none" xmlns="http://www.w3.org/2000/svg">
    <path fill-rule="evenodd" clip-rule="evenodd" d="M25.5243 24.2386L22.4867 21.0422C22.1876 20.729 21.7683 20.535 21.3037 20.535C20.8695 20.535 20.474 20.7051 20.1801 20.983L19.5018 21.6289C19.3311 21.7938 19.0995 21.8949 18.845 21.8949C18.7574 21.8949 18.672 21.8829 18.5919 21.8604C16.7254 21.2947 15.1639 20.1603 14.067 18.6595L13.4258 17.6053C12.6243 16.3818 12.1471 14.8802 12.1471 13.2663C12.1471 13.0887 12.153 12.9126 12.1642 12.738C12.2035 12.215 12.5367 11.755 13.0035 11.5399L13.5201 11.3107C14.1331 11.0252 14.5502 10.4108 14.5502 9.69748C14.5502 9.43748 14.4945 9.19097 14.395 8.96844L12.6198 4.98604C12.4261 4.56495 12.0781 4.24426 11.6506 4.09441C11.4821 4.03372 11.3018 4 11.1133 4C10.8461 4 10.5938 4.06669 10.3726 4.18507C9.816 4.42709 9.33286 4.75901 8.92394 5.16662C7.26821 7.06153 5.18648 14.2591 9.86201 20.8474C10.7793 22.1407 15.2782 28 21.4633 28C21.4662 28 21.4692 28 21.4729 28C22.247 28 22.9995 27.9093 23.7216 27.7385C24.3213 27.5557 24.8949 27.2185 25.3662 26.7719C25.7529 26.4557 26 25.9732 26 25.433C26 24.9692 25.8189 24.5488 25.5235 24.2394L25.5243 24.2386ZM24.3688 25.6375C24.0801 25.9163 23.732 26.1343 23.3461 26.2707C22.2091 26.5247 16.3692 27.4126 11.0903 19.9745C6.6871 13.7623 9.03303 7.33951 10.0565 6.16615C10.3385 5.9114 10.6658 5.69935 11.0227 5.5435C11.0665 5.52702 11.0895 5.52103 11.114 5.51953C11.1177 5.51953 11.1207 5.51878 11.1237 5.51878C11.137 5.51878 11.1496 5.52178 11.1615 5.52702C11.1994 5.53901 11.2298 5.56598 11.2461 5.6012L13.025 9.59558C13.0391 9.6263 13.0473 9.66152 13.0473 9.69973C13.0473 9.80088 12.9872 9.8878 12.9011 9.92601L12.3905 10.1598C11.419 10.6049 10.7385 11.5422 10.6591 12.6474C10.6465 12.8377 10.639 13.0482 10.639 13.2603C10.639 15.1724 11.2023 16.952 12.1701 18.4385L12.7965 19.471C14.1108 21.285 15.9573 22.6352 18.1021 23.2953C18.3767 23.3747 18.609 23.4099 18.8494 23.4099C19.5055 23.4099 20.1022 23.1499 20.543 22.7266L21.2213 22.0807C21.2436 22.0605 21.274 22.0478 21.3067 22.0478C21.343 22.0478 21.3764 22.0635 21.4002 22.0882L24.4378 25.2846C24.4749 25.3236 24.4972 25.376 24.4972 25.4345C24.4972 25.4397 24.4972 25.4457 24.4964 25.451C24.4838 25.5311 24.4356 25.5993 24.3688 25.6375Z" fill="white"/>
</svg>
