<svg width="16" height="16" viewBox="0 0 16 16" fill="none" xmlns="http://www.w3.org/2000/svg">
<path fill-rule="evenodd" clip-rule="evenodd" d="M15.5207 13.2066L10.3141 8L15.5207 2.79337C16.1598 2.15429 16.1598 1.11839 15.5207 0.479308C14.8816 -0.15977 13.8457 -0.159769 13.2066 0.479309L8 5.68594L2.79337 0.479309C2.15429 -0.159769 1.11839 -0.15977 0.479309 0.479308C-0.159769 1.11839 -0.159769 2.15429 0.479309 2.79337L5.68594 8L0.479308 13.2066C-0.15977 13.8457 -0.159769 14.8816 0.479309 15.5207C1.11839 16.1598 2.15429 16.1598 2.79337 15.5207L8 10.3141L13.2066 15.5207C13.8457 16.1598 14.8816 16.1598 15.5207 15.5207C16.1598 14.8816 16.1598 13.8457 15.5207 13.2066Z" fill="white"/>
</svg>
