<svg width="18" height="22" viewBox="0 0 18 22" fill="none" xmlns="http://www.w3.org/2000/svg">
<path fill-rule="evenodd" clip-rule="evenodd" d="M2.28928 15.7107V13.14L12.6658 2.7634L15.2366 5.33416L4.86004 15.7107H2.28928ZM17.6647 4.52478L13.4752 0.335257C13.0282 -0.111752 12.3035 -0.111752 11.8565 0.335257L0.335257 11.8565C0.120595 12.0711 0 12.3623 0 12.6658V16.8554C0 17.4875 0.512472 18 1.14464 18H5.33416C5.63774 18 5.92888 17.8794 6.14355 17.6647L17.6647 6.14355C18.1118 5.69654 18.1118 4.97179 17.6647 4.52478ZM0 21C0 21.5523 0.436309 22 0.974522 22H17.0255C17.5637 22 18 21.5523 18 21C18 20.4477 17.5637 20 17.0255 20H0.974522C0.436309 20 0 20.4477 0 21Z" fill="white"/>
</svg>
