<svg width="32" height="32" viewBox="0 0 32 32" fill="none" xmlns="http://www.w3.org/2000/svg">
    <path fill-rule="evenodd" clip-rule="evenodd" d="M16.5211 13.85C16.9273 13.6911 17.1278 13.233 16.9689 12.8268C16.8232 12.4544 16.6495 12.0946 16.4496 11.7511C15.0493 9.3389 12.4793 7.84961 9.67712 7.84961C5.35439 7.84961 1.84998 11.354 1.84998 15.6768C1.84998 19.9998 5.35411 23.5039 9.67712 23.5039C12.333 23.5039 14.7872 22.1671 16.2331 19.9536C16.5268 19.5048 16.774 19.0255 16.9702 18.5242C17.1291 18.118 16.9286 17.6599 16.5224 17.501C16.1162 17.342 15.6581 17.5425 15.4992 17.9487C15.3427 18.3487 15.1455 18.731 14.9111 19.0892C13.7557 20.8578 11.7981 21.9244 9.67712 21.9244C6.22645 21.9244 3.4295 19.1275 3.4295 15.6768C3.4295 12.2264 6.22674 9.42913 9.67712 9.42913C11.9147 9.42913 13.9652 10.6176 15.084 12.545C15.2435 12.8189 15.3818 13.1054 15.4979 13.4022C15.6568 13.8084 16.1149 14.0089 16.5211 13.85ZM17.3719 20.7398C17.1033 21.0835 17.1643 21.5798 17.5079 21.8484C18.8822 22.9221 20.5659 23.5039 22.3228 23.5039C24.9787 23.5039 27.4329 22.1671 28.8788 19.9536C29.7091 18.6828 30.15 17.2062 30.15 15.6768C30.15 14.2876 29.7868 12.9411 29.0956 11.7517C27.695 9.33895 25.125 7.84961 22.3228 7.84961C20.5672 7.84961 18.8842 8.43094 17.5101 9.50366C17.1663 9.77207 17.1052 10.2684 17.3736 10.6122C17.642 10.956 18.1383 11.0171 18.4821 10.7487C19.5791 9.89229 20.9203 9.42913 22.3228 9.42913C24.5604 9.42913 26.6109 10.6176 27.7297 12.545C28.2812 13.494 28.5705 14.5667 28.5705 15.6768C28.5705 16.8987 28.2192 18.0753 27.5564 19.0898C26.4014 20.8579 24.4437 21.9244 22.3228 21.9244C20.9191 21.9244 19.5775 21.4609 18.4805 20.6037C18.1368 20.3352 17.6404 20.3961 17.3719 20.7398ZM23.1362 15.4989C23.1362 15.3096 23.0619 15.133 22.9313 15.0017L20.337 12.3747C20.2079 12.2432 20.031 12.168 19.8424 12.168C19.6536 12.168 19.476 12.2435 19.3466 12.3745C19.2165 12.5055 19.1415 12.6833 19.1415 12.8721C19.1415 13.0609 19.2167 13.2382 19.347 13.3693L20.7655 14.8128H9.54092C9.15163 14.8128 8.83624 15.1282 8.83624 15.5175C8.83624 15.9063 9.15175 16.2215 9.54092 16.2215H20.7314L19.3082 17.6654C19.178 17.7956 19.1031 17.9734 19.1031 18.1623C19.1031 18.3512 19.1783 18.5292 19.3089 18.6599C19.4378 18.7904 19.6148 18.8663 19.8027 18.8663C19.9936 18.8663 20.1701 18.7905 20.2982 18.6581L22.9316 15.996C23.0617 15.865 23.1362 15.6879 23.1362 15.4989Z" fill="white"/>
</svg>
