<svg width="25" height="32" viewBox="0 0 25 32" fill="none" xmlns="http://www.w3.org/2000/svg">
<path fill-rule="evenodd" clip-rule="evenodd" d="M0.815079 15.2323C-1.17691 20.5977 0.563745 26.3853 5.14641 29.6341C10.5303 33.4514 17.6114 32.4382 21.8402 28.1102C21.8402 28.1102 25 24.8133 25 21.041C25 17.6242 24.0216 15.181 21.8004 12.467L19.1798 9.26497L19.3279 14.0744C19.379 15.743 18.379 17.1471 16.9915 17.7801C17.5497 15.6888 17.9729 13.6417 17.8288 11.44C17.514 6.63303 14.619 2.93803 12.5187 0C10.8196 3.61909 9.68975 6.33971 6.28138 8.99947C6.28138 8.99947 1.90681 12.4753 0.815079 15.2323Z" fill="#FD8F25"/>
</svg>
