<svg width="204" height="36" viewBox="0 0 204 36" fill="none" xmlns="http://www.w3.org/2000/svg">
<circle cx="186" cy="18" r="17" fill="#E1306C" stroke="#131313" stroke-width="2"/>
<path fill-rule="evenodd" clip-rule="evenodd" d="M185.997 10.0059C183.825 10.0059 183.553 10.0151 182.7 10.054C181.849 10.0928 181.268 10.228 180.759 10.4257C180.233 10.6301 179.787 10.9035 179.342 11.3481C178.898 11.7928 178.624 12.2388 178.42 12.7647C178.222 13.2734 178.087 13.8547 178.048 14.706C178.009 15.559 178 15.8314 178 18.0034C178 20.1753 178.009 20.4477 178.048 21.3007C178.087 22.1519 178.222 22.7333 178.42 23.242C178.624 23.7679 178.898 24.2139 179.342 24.6585C179.787 25.1031 180.233 25.3766 180.759 25.581C181.268 25.7787 181.849 25.9139 182.7 25.9527C183.553 25.9916 183.825 26.0008 185.997 26.0008C188.169 26.0008 188.442 25.9916 189.295 25.9527C190.146 25.9139 190.727 25.7787 191.236 25.581C191.762 25.3766 192.208 25.1031 192.653 24.6585C193.097 24.2139 193.371 23.7679 193.575 23.242C193.773 22.7333 193.908 22.1519 193.947 21.3007C193.986 20.4477 193.995 20.1753 193.995 18.0034C193.995 15.8314 193.986 15.559 193.947 14.706C193.908 13.8547 193.773 13.2734 193.575 12.7647C193.371 12.2388 193.097 11.7928 192.653 11.3481C192.208 10.9035 191.762 10.6301 191.236 10.4257C190.727 10.228 190.146 10.0928 189.295 10.054C188.442 10.0151 188.169 10.0059 185.997 10.0059ZM185.998 11.4477C188.133 11.4477 188.386 11.4559 189.229 11.4944C190.009 11.5299 190.432 11.6602 190.714 11.7697C191.087 11.9148 191.354 12.0881 191.634 12.368C191.914 12.6478 192.087 12.9143 192.232 13.2876C192.342 13.5694 192.472 13.9928 192.507 14.7726C192.546 15.6159 192.554 15.8688 192.554 18.0043C192.554 20.1397 192.546 20.3926 192.507 21.2359C192.472 22.0157 192.342 22.4391 192.232 22.7209C192.087 23.0942 191.914 23.3606 191.634 23.6405C191.354 23.9204 191.087 24.0937 190.714 24.2387C190.432 24.3483 190.009 24.4785 189.229 24.5141C188.386 24.5526 188.133 24.5607 185.998 24.5607C183.862 24.5607 183.609 24.5526 182.766 24.5141C181.986 24.4785 181.563 24.3483 181.281 24.2387C180.908 24.0937 180.641 23.9204 180.361 23.6405C180.081 23.3606 179.908 23.0942 179.763 22.7209C179.653 22.4391 179.523 22.0157 179.488 21.2359C179.449 20.3926 179.441 20.1397 179.441 18.0043C179.441 15.8688 179.449 15.6159 179.488 14.7726C179.523 13.9928 179.653 13.5694 179.763 13.2876C179.908 12.9143 180.081 12.6478 180.361 12.368C180.641 12.0881 180.908 11.9148 181.281 11.7697C181.563 11.6602 181.986 11.5299 182.766 11.4944C183.609 11.4559 183.862 11.4477 185.998 11.4477ZM181.891 18.004C181.891 15.7358 183.729 13.8971 185.997 13.8971C188.266 13.8971 190.104 15.7358 190.104 18.004C190.104 20.2721 188.266 22.1107 185.997 22.1107C183.729 22.1107 181.891 20.2721 181.891 18.004ZM185.998 20.6694C184.525 20.6694 183.332 19.4758 183.332 18.0035C183.332 16.5312 184.525 15.3377 185.998 15.3377C187.47 15.3377 188.663 16.5312 188.663 18.0035C188.663 19.4758 187.47 20.6694 185.998 20.6694ZM190.267 14.6951C190.797 14.6951 191.226 14.2654 191.226 13.7354C191.226 13.2054 190.797 12.7757 190.267 12.7757C189.737 12.7757 189.307 13.2054 189.307 13.7354C189.307 14.2654 189.737 14.6951 190.267 14.6951Z" fill="white"/>
<circle cx="158" cy="18" r="17" fill="#506CFB" stroke="#131313" stroke-width="2"/>
<path fill-rule="evenodd" clip-rule="evenodd" d="M157.704 27.3333C161.958 27.3333 165.407 23.4531 165.407 18.6667C165.407 13.8802 161.958 10 157.704 10C153.449 10 150 13.8802 150 18.6667C150 23.4531 153.449 27.3333 157.704 27.3333ZM157.704 22.0925C159.706 22.0925 161.329 21.2753 161.329 20.2672C161.329 19.2592 159.706 18.442 157.704 18.442C155.702 18.442 154.078 19.2592 154.078 20.2672C154.078 21.2753 155.702 22.0925 157.704 22.0925Z" fill="white"/>
<circle cx="130" cy="18" r="17" fill="#59267C" stroke="#131313" stroke-width="2"/>
<path fill-rule="evenodd" clip-rule="evenodd" d="M136.778 14.4344L136.782 14.4513C137.205 16.3804 137.205 18.3368 136.782 20.266L136.778 20.2829C136.436 21.6643 134.896 23.1466 133.481 23.455L133.465 23.4583C132.321 23.6765 131.169 23.7854 130.017 23.7854C129.678 23.7854 129.339 23.7749 129 23.7559L127.438 25.3799C127.051 25.7826 126.371 25.5085 126.371 24.9504V23.4084C125.009 23.0195 123.583 21.6053 123.256 20.2829L123.252 20.266C122.83 18.3368 122.83 16.3804 123.252 14.4513L123.256 14.4344C123.598 13.053 125.138 11.5707 126.553 11.2623L126.569 11.259C128.857 10.8225 131.177 10.8225 133.465 11.259L133.481 11.2623C134.896 11.5707 136.436 13.053 136.778 14.4344ZM133.219 22.2149C134.148 22.0079 135.318 20.8875 135.546 19.9862C135.927 18.2425 135.927 16.4748 135.546 14.731C135.318 13.8298 134.149 12.7094 133.219 12.5024C131.094 12.0983 128.94 12.0983 126.815 12.5024C125.886 12.7094 124.716 13.8298 124.488 14.731C124.108 16.4748 124.108 18.2425 124.488 19.9862C124.716 20.8874 125.886 22.0078 126.815 22.2148L126.816 22.215C126.857 22.2231 126.887 22.2589 126.887 22.3011V24.8556C126.887 24.9833 127.043 25.0462 127.132 24.9537L128.345 23.7084L129.486 22.5374C129.503 22.52 129.526 22.5105 129.551 22.5112C130.776 22.5451 132.002 22.4462 133.219 22.2149Z" fill="white"/>
<path d="M132.039 21.1656C131.896 21.1222 131.76 21.0931 131.633 21.0406C130.323 20.497 129.117 19.7956 128.162 18.7205C127.619 18.1091 127.193 17.4189 126.834 16.6885C126.664 16.3421 126.52 15.9821 126.374 15.6245C126.24 15.2983 126.437 14.9614 126.644 14.7157C126.838 14.4851 127.088 14.3086 127.359 14.1785C127.57 14.077 127.779 14.1356 127.933 14.3147C128.267 14.7019 128.573 15.109 128.821 15.5578C128.974 15.8339 128.932 16.1714 128.655 16.3593C128.588 16.405 128.527 16.4586 128.464 16.5101C128.409 16.5553 128.358 16.601 128.32 16.6622C128.251 16.7742 128.248 16.9063 128.292 17.0281C128.633 17.9653 129.208 18.6941 130.151 19.0867C130.302 19.1495 130.454 19.2226 130.628 19.2023C130.919 19.1683 131.013 18.8488 131.218 18.6819C131.417 18.5188 131.672 18.5167 131.887 18.6526C132.102 18.7887 132.31 18.9347 132.517 19.0823C132.721 19.2271 132.923 19.3688 133.11 19.5339C133.291 19.6927 133.353 19.901 133.251 20.1165C133.065 20.5112 132.795 20.8395 132.405 21.0491C132.295 21.1082 132.163 21.1273 132.039 21.1656C132.163 21.1273 131.896 21.1222 132.039 21.1656Z" fill="white"/>
<path d="M130.021 13.7273C131.735 13.7753 133.142 14.9127 133.444 16.6072C133.495 16.8959 133.514 17.1911 133.537 17.4841C133.546 17.6074 133.476 17.7245 133.343 17.7261C133.206 17.7278 133.144 17.6128 133.135 17.4896C133.118 17.2457 133.105 17.0007 133.072 16.7589C132.894 15.4821 131.876 14.4258 130.605 14.1991C130.414 14.165 130.218 14.1561 130.025 14.1357C129.902 14.1229 129.742 14.1155 129.715 13.9632C129.692 13.8356 129.8 13.734 129.921 13.7275C129.954 13.7256 129.988 13.7271 130.021 13.7273C129.988 13.7271 131.735 13.7753 130.021 13.7273Z" fill="white"/>
<path d="M132.625 17.1038C132.623 17.1252 132.621 17.1755 132.609 17.2229C132.563 17.395 132.302 17.4165 132.242 17.2429C132.224 17.1913 132.222 17.1327 132.222 17.0772C132.221 16.7142 132.142 16.3516 131.959 16.0357C131.771 15.7111 131.483 15.4382 131.146 15.2731C130.942 15.1732 130.722 15.1112 130.498 15.0742C130.401 15.0581 130.302 15.0482 130.204 15.0346C130.085 15.0181 130.021 14.9423 130.027 14.8251C130.032 14.7152 130.112 14.6362 130.232 14.643C130.625 14.6653 131.005 14.7503 131.355 14.9355C132.066 15.3121 132.472 15.9065 132.591 16.7002C132.596 16.7362 132.605 16.7718 132.608 16.8079C132.614 16.897 132.619 16.9863 132.625 17.1038C132.619 16.9863 132.623 17.1252 132.625 17.1038Z" fill="white"/>
<path d="M131.559 17.0618C131.416 17.0644 131.339 16.985 131.324 16.8536C131.314 16.7619 131.306 16.669 131.284 16.5798C131.241 16.4042 131.148 16.2414 131 16.1338C130.93 16.0829 130.851 16.0459 130.768 16.022C130.663 15.9916 130.554 16 130.449 15.9743C130.335 15.9463 130.272 15.8541 130.29 15.7471C130.306 15.6498 130.401 15.5739 130.507 15.5816C131.172 15.6296 131.647 15.9731 131.714 16.7554C131.719 16.8106 131.725 16.8689 131.713 16.9217C131.692 17.0121 131.625 17.0574 131.559 17.0618C131.625 17.0574 131.416 17.0644 131.559 17.0618Z" fill="white"/>
<circle cx="102" cy="18" r="17" fill="#1CD86D" stroke="#131313" stroke-width="2"/>
<path fill-rule="evenodd" clip-rule="evenodd" d="M110 17.794C110 22.0985 106.484 25.5879 102.145 25.5879C100.768 25.5879 99.4743 25.2359 98.3486 24.6181L94 26L95.4178 21.8183C94.7026 20.6439 94.2907 19.2665 94.2907 17.794C94.2907 13.4894 97.8073 10 102.145 10C106.484 10 110 13.4894 110 17.794ZM102.145 11.2412C98.5038 11.2412 95.5417 14.1808 95.5417 17.7939C95.5417 19.2277 96.0091 20.5555 96.7996 21.6357L95.9746 24.0693L98.5124 23.2627C99.555 23.9474 100.804 24.3466 102.146 24.3466C105.787 24.3466 108.749 21.4074 108.749 17.7943C108.749 14.1811 105.787 11.2412 102.145 11.2412ZM105.847 19.4167C105.982 19.4813 106.073 19.5249 106.112 19.589C106.16 19.6686 106.16 20.051 106 20.4976C105.839 20.9435 105.052 21.3737 104.7 21.4055C104.639 21.411 104.589 21.423 104.538 21.4354C104.289 21.495 104.011 21.5617 102.389 20.928C100.58 20.2211 99.3881 18.4664 99.1417 18.1037C99.1214 18.074 99.1076 18.0536 99.1003 18.0439L99.1 18.0435C99.0022 17.9146 98.3141 17.0073 98.3141 16.0683C98.3141 15.1888 98.7495 14.7276 98.9499 14.5152C98.9637 14.5006 98.9764 14.4872 98.9877 14.4749C99.1643 14.2837 99.373 14.2359 99.5013 14.2359C99.5677 14.2359 99.6341 14.2402 99.6982 14.2443C99.7582 14.2482 99.8162 14.2519 99.8704 14.2519C99.8839 14.2519 99.898 14.251 99.9127 14.2501C100.021 14.2431 100.162 14.234 100.303 14.5705C100.355 14.6931 100.429 14.873 100.509 15.064C100.676 15.4689 100.865 15.9238 100.897 15.9886C100.946 16.0845 100.978 16.1959 100.913 16.3234C100.904 16.3417 100.896 16.3591 100.887 16.3757C100.839 16.4745 100.804 16.5465 100.721 16.6421C100.689 16.6791 100.656 16.7189 100.623 16.7587C100.557 16.839 100.49 16.9194 100.432 16.9767C100.336 17.0718 100.235 17.1751 100.348 17.3662C100.46 17.5577 100.846 18.1828 101.419 18.6891C102.034 19.2337 102.569 19.464 102.84 19.5805C102.893 19.6032 102.935 19.6216 102.967 19.6372C103.159 19.7328 103.272 19.7168 103.384 19.589C103.497 19.4615 103.866 19.0315 103.994 18.8402C104.122 18.6491 104.251 18.6811 104.427 18.7447C104.603 18.8082 105.55 19.2706 105.743 19.3661C105.78 19.3845 105.815 19.4012 105.847 19.4167Z" fill="white"/>
<circle cx="74" cy="18" r="17" fill="#ED812B" stroke="#131313" stroke-width="2"/>
<path fill-rule="evenodd" clip-rule="evenodd" d="M73.544 10.8887C75.5344 10.8941 77.132 12.5222 77.1217 14.5346C77.1117 16.5006 75.488 18.094 73.5009 18.0873C71.5341 18.0806 69.921 16.45 69.9327 14.4801C69.9438 12.4886 71.5577 10.8832 73.544 10.8887ZM77.5755 19.5015C77.1353 19.9533 76.6055 20.2803 76.0172 20.5085C75.461 20.724 74.8516 20.8325 74.2482 20.9049L74.312 20.9744L74.312 20.9744C74.3633 21.0305 74.3975 21.0678 74.4393 21.1096C74.7522 21.4241 75.0657 21.7381 75.3791 22.0521L75.3795 22.0525C75.8862 22.5599 76.3927 23.0673 76.8968 23.5771C77.1749 23.8585 77.2328 24.2073 77.0797 24.5341C76.9127 24.8916 76.5378 25.1266 76.17 25.1013C75.9371 25.0852 75.7554 24.9696 75.5942 24.8071C75.3937 24.6054 75.192 24.4049 74.9903 24.2044L74.9902 24.2043C74.5702 23.7867 74.1501 23.3691 73.7413 22.9411C73.5647 22.7567 73.4802 22.7918 73.3244 22.952C72.7028 23.5922 72.071 24.2221 71.4356 24.8487C71.1502 25.1302 70.8107 25.1812 70.4795 25.0202C70.1276 24.85 69.9039 24.4906 69.921 24.1291C69.9332 23.8853 70.0532 23.6984 70.2209 23.5315C70.9157 22.8381 71.6087 22.1428 72.3016 21.4477L72.6479 21.1004C72.6824 21.0658 72.7153 21.0299 72.7551 20.9864L72.7551 20.9864L72.7552 20.9864C72.7773 20.9622 72.8015 20.9358 72.8293 20.9059C71.7269 20.7907 70.7327 20.5193 69.8815 19.8538C69.8615 19.8381 69.8413 19.8226 69.8212 19.807L69.821 19.8068C69.7348 19.7402 69.6485 19.6735 69.5706 19.5983C69.1978 19.2406 69.1604 18.8306 69.455 18.4087C69.7074 18.0474 70.1305 17.9508 70.5706 18.1584C70.656 18.1983 70.7371 18.2489 70.8149 18.3024C72.4009 19.3924 74.58 19.4223 76.1723 18.3512C76.33 18.2307 76.4987 18.1316 76.6942 18.0817C77.0739 17.9838 77.4285 18.1237 77.6321 18.4561C77.8652 18.836 77.8625 19.2065 77.5755 19.5015ZM71.8541 14.5885C71.8541 13.6632 72.6041 12.9132 73.5293 12.9132C74.4546 12.9132 75.2046 13.6632 75.2046 14.5885C75.2046 15.5137 74.4546 16.2637 73.5293 16.2637C72.6041 16.2637 71.8541 15.5137 71.8541 14.5885Z" fill="#FEFEFE"/>
<circle cx="46" cy="18" r="17" fill="#3B5998" stroke="#131313" stroke-width="2"/>
<path d="M49.537 13.0839L48.218 13.0844C47.1836 13.0844 46.9836 13.5759 46.9836 14.2971V15.8874H49.4502L49.449 18.3781H46.9838V24.7699H44.4112V18.3781H42.2605V15.8874H44.4112V14.0505C44.4112 11.9188 45.7136 10.7578 47.6151 10.7578L49.5372 10.7607V13.0839H49.537Z" fill="#FEFEFE"/>
<circle cx="18" cy="18" r="17" fill="#45668E" stroke="#131313" stroke-width="2"/>
<path d="M22.2327 19.3021C22.697 19.7556 23.1882 20.1824 23.605 20.6828C23.7897 20.9041 23.9637 21.133 24.0962 21.3904C24.2853 21.7575 24.1145 22.1601 23.786 22.1819L21.7452 22.1815C21.2181 22.2251 20.7987 22.0125 20.445 21.6521C20.1627 21.365 19.9008 21.0582 19.629 20.7613C19.5179 20.6394 19.4009 20.5246 19.2615 20.4343C18.9833 20.2534 18.7415 20.3088 18.5822 20.5994C18.4197 20.8952 18.3826 21.2229 18.3671 21.5521C18.3449 22.0333 18.1998 22.159 17.717 22.1817C16.6852 22.23 15.7063 22.0734 14.7965 21.5533C13.9938 21.0945 13.3726 20.447 12.8313 19.7139C11.7771 18.2847 10.9698 16.7161 10.2444 15.1025C10.0812 14.7391 10.2006 14.5447 10.6015 14.5371C11.2676 14.5243 11.9337 14.5259 12.5997 14.5365C12.8708 14.5408 13.0502 14.6959 13.1543 14.9517C13.5143 15.8373 13.9555 16.6798 14.5085 17.4613C14.6558 17.6694 14.8063 17.8769 15.0205 18.0238C15.2569 18.186 15.4371 18.1324 15.5485 17.8685C15.6199 17.7008 15.6507 17.5214 15.6662 17.3416C15.7191 16.7259 15.7255 16.1104 15.6337 15.4971C15.5767 15.1133 15.3608 14.8655 14.9783 14.7929C14.7834 14.756 14.812 14.6839 14.9067 14.5726C15.0712 14.3802 15.2253 14.2611 15.5333 14.2611L17.839 14.2607C18.2024 14.3321 18.284 14.4951 18.3333 14.8612L18.3353 17.4236C18.3311 17.5652 18.4065 17.9851 18.6608 18.0778C18.8646 18.1451 18.9992 17.9816 19.121 17.8526C19.674 17.2658 20.068 16.5732 20.4208 15.8564C20.5765 15.5403 20.7108 15.2132 20.8413 14.8854C20.9383 14.6431 21.0891 14.5239 21.3626 14.5279L23.583 14.5306C23.6484 14.5306 23.7149 14.5312 23.7797 14.5424C24.1539 14.6064 24.2564 14.7674 24.1406 15.1325C23.9584 15.706 23.6044 16.1838 23.2583 16.6627C22.8874 17.1755 22.4918 17.6704 22.1245 18.1854C21.787 18.6562 21.8137 18.8933 22.2327 19.3021Z" fill="#FEFEFE"/>
</svg>
