<svg width="24" height="24" viewBox="0 0 24 24" fill="none" xmlns="http://www.w3.org/2000/svg">
<path fill-rule="evenodd" clip-rule="evenodd" d="M12 0C5.37225 0 0 5.37225 0 12C0 18.6278 5.37225 24 12 24C18.6278 24 24 18.6278 24 12C23.9918 5.376 18.624 0.00825 12.0007 0H12ZM12 22.5C6.201 22.5 1.5 17.799 1.5 12C1.5 6.201 6.201 1.5 12 1.5C17.799 1.5 22.5 6.201 22.5 12C22.4925 17.796 17.796 22.4925 12.0007 22.5H12ZM12 5.1975C9.60975 5.199 7.67175 7.13475 7.66725 9.52425C7.66725 9.939 8.00325 10.275 8.41725 10.275C8.83125 10.275 9.16725 9.939 9.16725 9.525C9.1695 7.9605 10.437 6.693 12.0015 6.69C12.8595 6.72825 13.6012 7.191 14.0258 7.872C14.2417 8.20575 14.3663 8.60025 14.3663 9.02475C14.3663 9.38025 14.2785 9.7155 14.1233 10.0095C13.848 10.47 13.4408 10.8413 12.9532 11.0708C11.9288 11.5005 11.2343 12.4792 11.2343 13.62C11.2343 13.6357 11.2343 13.6515 11.235 13.6673C11.2522 14.91 11.2523 15.42 11.2523 15.42C11.2523 15.834 11.5883 16.17 12.0023 16.17C12.4163 16.17 12.7523 15.834 12.7523 15.42C12.7523 15.006 12.7522 14.91 12.735 13.65C12.7253 12.975 12.9765 12.795 13.7032 12.3675C14.4592 11.9865 15.0653 11.4023 15.462 10.686C15.7215 10.188 15.8678 9.624 15.8678 9.02475C15.8678 8.3085 15.6585 7.641 15.2985 7.08075C14.6077 5.9745 13.3942 5.232 12.0052 5.1975H12ZM12 17.04C11.4758 17.04 11.0513 17.4645 11.0513 17.9888C11.0513 18.513 11.4758 18.9375 12 18.9375C12.5243 18.9375 12.9488 18.513 12.9488 17.9888C12.9488 17.9873 12.9488 17.9865 12.9488 17.985C12.9488 17.985 12.9488 17.985 12.9488 17.9843C12.9488 17.463 12.5258 17.04 12.0045 17.04C12.003 17.04 12.0015 17.04 12 17.04Z" fill="white"/>
</svg>
