<svg width="34" height="15" viewBox="0 0 34 15" fill="none" xmlns="http://www.w3.org/2000/svg">
<path fill-rule="evenodd" clip-rule="evenodd" d="M26.0758 14.4776C24.1633 14.4776 22.5377 13.8811 21.1512 12.6881C20.0993 11.8162 19.7168 11.4879 18.7127 10.5702C18.2824 10.2031 18.2346 9.65246 18.4736 9.23949C18.7127 8.8724 19.1908 8.64297 19.7168 8.82651C19.908 8.8724 20.0993 9.01006 20.2427 9.14771C21.2468 10.0195 21.6293 10.302 22.6334 11.1738C24.1633 12.5045 26.2193 12.8257 27.9883 11.9998C29.9486 11.082 31.1917 9.2466 31.0961 7.36528C30.9527 4.42858 27.0799 1.35421 23.4462 3.51086C22.4899 4.10737 21.6293 4.88743 20.7687 5.62161C18.1868 7.91591 15.6528 10.2102 13.0709 12.5045C11.8756 13.5599 10.489 14.2023 8.86342 14.4317C4.27345 15.0741 0.11378 11.082 0.830964 6.72287C1.3569 3.3732 4.41688 0.757696 8.0028 0.757696C9.81967 0.757696 11.342 1.3767 12.8318 2.54725C13.7663 3.28143 14.0933 3.62256 14.9616 4.38345C15.105 4.52111 15.2962 4.65876 15.3919 4.84231C15.6309 5.25528 15.5353 5.8518 15.1528 6.12712C14.7703 6.44832 14.1488 6.44832 13.7663 6.08123C13.1925 5.57648 11.712 4.24511 11.015 3.74029C9.38936 2.59314 7.66812 2.36371 5.85125 3.28143C3.98657 4.24503 2.83908 5.71338 2.9347 7.82414C2.98252 10.715 6.95093 13.8811 10.5847 11.6786C11.6365 11.0362 12.545 10.1643 13.5012 9.33838C15.9396 7.18174 18.4259 4.88743 20.9599 2.68491C22.4421 1.4001 24.259 0.665924 26.3149 0.757696C29.1358 0.94124 32.0524 2.82257 32.9608 5.75927C33.8214 8.51243 32.7217 11.4491 30.1877 13.1928C28.8968 14.0187 27.4624 14.4776 26.0758 14.4776Z" fill="white"/>
</svg>
