<svg width="302" height="113" viewBox="0 0 302 113" fill="none" xmlns="http://www.w3.org/2000/svg">
<path d="M0 39.7922L44.334 33.6087V51.2647L0 56.1062V39.7922ZM14.1459 57.098L30.3782 55.4535V113H14.1459V57.098ZM50.3204 32.7727L67.4231 30.3868V112.999H50.3204V32.7727ZM70.6099 29.9413L95.3067 26.4969V45.7001L70.6099 48.3958V29.9413ZM70.6099 62.132L86.823 60.7487V80.0471L70.6099 80.926V62.132ZM70.6097 94.4688L95.3065 93.7296V112.999H70.6097V94.4688ZM159.174 17.558L181.594 14.4297V113H159.174V17.558ZM185.783 13.8455L218.457 9.28743V32.2313L185.783 35.7985V13.8455ZM185.783 52.3108L207.2 50.4886V73.5097L185.783 74.6709V52.3108ZM185.783 91.0138L218.456 90.0355V112.999H185.783V91.0138ZM101.84 25.5846L121.322 22.8667V113H101.84V25.5846ZM124.958 92.8412L153.239 91.9941V112.999H124.958V92.8412ZM291.708 8.20713C298.186 14.286 301.453 22.8956 300.672 31.8299C299.195 48.7171 290.939 62.2476 267.953 84.54L230.334 85.7657C230.334 85.7657 256.539 62.1397 266.395 50.5964C272.781 43.1163 275.486 35.0418 272.863 29.6598C271.201 26.2492 267.469 24.5518 262.87 24.8056V0.45624C274.235 -1.16501 284.627 1.56139 291.708 8.20713ZM302 113H225.694V89.4036L302 87.5194V113ZM258.484 1.00289L258.497 25.8017C253.845 27.7476 249.247 31.2873 250.324 46.2106L226.688 48.2919C225.432 21.8771 236.317 5.68685 258.484 1.00289Z" fill="white"/>
</svg>
