<svg width="32" height="32" viewBox="0 0 32 32" fill="none" xmlns="http://www.w3.org/2000/svg">
<circle cx="16" cy="16" r="16" fill="#ED812B"/>
<path fill-rule="evenodd" clip-rule="evenodd" d="M15.544 8.88869C17.5344 8.89412 19.132 10.5222 19.1218 12.5346C19.1117 14.5006 17.488 16.094 15.5009 16.0873C13.5341 16.0806 11.9211 14.45 11.9328 12.4801C11.9439 10.4886 13.5577 8.88325 15.544 8.88869ZM19.5755 17.5015C19.1354 17.9533 18.6056 18.2803 18.0172 18.5085C17.4611 18.724 16.8516 18.8325 16.2482 18.9049L16.312 18.9744L16.312 18.9744C16.3634 19.0305 16.3976 19.0678 16.4393 19.1096C16.7522 19.4241 17.0657 19.7381 17.3792 20.0521L17.3796 20.0525C17.8862 20.5599 18.3928 21.0673 18.8968 21.5771C19.1749 21.8585 19.2328 22.2073 19.0798 22.5341C18.9127 22.8916 18.5378 23.1266 18.17 23.1013C17.9371 23.0852 17.7554 22.9696 17.5942 22.8071C17.3938 22.6054 17.1921 22.4049 16.9904 22.2044L16.9903 22.2043C16.5702 21.7867 16.1502 21.3691 15.7414 20.9411C15.5647 20.7567 15.4802 20.7918 15.3245 20.952C14.7029 21.5922 14.071 22.2221 13.4356 22.8487C13.1502 23.1302 12.8107 23.1812 12.4795 23.0202C12.1276 22.85 11.9039 22.4906 11.9211 22.1291C11.9332 21.8853 12.0532 21.6984 12.2209 21.5315C12.9158 20.8381 13.6088 20.1428 14.3017 19.4477L14.6479 19.1004C14.6824 19.0658 14.7153 19.0299 14.7551 18.9864L14.7552 18.9864L14.7552 18.9864C14.7773 18.9622 14.8015 18.9358 14.8294 18.9059C13.7269 18.7907 12.7327 18.5193 11.8815 17.8538C11.8615 17.8381 11.8414 17.8226 11.8212 17.807L11.821 17.8068C11.7348 17.7402 11.6486 17.6735 11.5706 17.5983C11.1979 17.2406 11.1604 16.8306 11.455 16.4087C11.7074 16.0474 12.1306 15.9508 12.5707 16.1584C12.656 16.1983 12.7371 16.2489 12.8149 16.3024C14.401 17.3924 16.58 17.4223 18.1723 16.3512C18.33 16.2307 18.4987 16.1316 18.6942 16.0817C19.0739 15.9838 19.4285 16.1237 19.6321 16.4561C19.8653 16.836 19.8625 17.2065 19.5755 17.5015ZM13.8541 12.5885C13.8541 11.6632 14.6041 10.9132 15.5294 10.9132C16.4546 10.9132 17.2047 11.6632 17.2047 12.5885C17.2047 13.5137 16.4546 14.2637 15.5294 14.2637C14.6041 14.2637 13.8541 13.5137 13.8541 12.5885Z" fill="#FEFEFE"/>
</svg>
