<svg width="24" height="17" viewBox="0 0 24 17" fill="none" xmlns="http://www.w3.org/2000/svg">
<path fill-rule="evenodd" clip-rule="evenodd" d="M23.2405 5.72762L18.0057 0.620441C17.6154 0.236849 17.0799 0 16.4888 0C16.4878 0 16.4867 0 16.4857 0H3.40445C1.52201 0.0118424 0 1.54106 0 3.42504C0 3.42967 0 3.43431 0 3.43843V13.0452C0 13.0488 0 13.0529 0 13.0571C0 14.9416 1.52201 16.4708 3.40393 16.4821H20.592C22.4759 16.4728 24 14.9431 24 13.0576C24 13.0529 24 13.0488 24 13.0442V7.52665C23.9979 6.82176 23.7075 6.18485 23.2405 5.72762ZM22.4903 13.0452C22.4903 13.0468 22.4903 13.0493 22.4903 13.0514C22.4903 14.1044 21.6403 14.9586 20.5889 14.9652H3.40445C2.3515 14.9596 1.50039 14.1049 1.50039 13.0514C1.50039 13.0493 1.50039 13.0473 1.50039 13.0452V3.43843C1.50039 3.43637 1.50039 3.43379 1.50039 3.43173C1.50039 2.37879 2.35047 1.52459 3.40187 1.51789H16.4837C16.669 1.51789 16.8369 1.59204 16.9594 1.71201L22.1999 6.82073C22.3843 7.00094 22.4991 7.2517 22.5001 7.52922V13.0457L22.4903 13.0452ZM10.3194 3.50021H4.91925C4.50425 3.5033 4.16905 3.84004 4.16905 4.25556C4.16905 4.2571 4.16905 4.25813 4.16905 4.25968V12.2245C4.16905 12.2255 4.16905 12.2271 4.16905 12.2281C4.16905 12.6431 4.50425 12.9803 4.91873 12.9834H10.3189C10.7339 12.9803 11.0691 12.6436 11.0691 12.2281C11.0691 12.2266 11.0691 12.2255 11.0691 12.224V4.25916C11.0691 4.25813 11.0691 4.25659 11.0691 4.25556C11.0691 3.84159 10.7354 3.50485 10.3225 3.50021H10.3194ZM9.56973 11.4655H5.66996V5.01553H9.56973V11.4655Z" fill="white"/>
</svg>
