<svg width="32" height="32" viewBox="0 0 32 32" fill="none" xmlns="http://www.w3.org/2000/svg">
<rect width="32" height="32" rx="14" fill="black"/>
<mask id="mask0" mask-type="alpha" maskUnits="userSpaceOnUse" x="0" y="0" width="32" height="32">
<rect width="32" height="32" rx="14" fill="white"/>
</mask>
<g mask="url(#mask0)">
<path fill-rule="evenodd" clip-rule="evenodd" d="M5.27191 7.30664L3.26196 7.51326L3.42857 9.03447L5.43851 8.83173L5.27191 7.30664ZM2.89943 7.54941L3.79644 15.7611L2.02907 15.9419L1.13206 7.73149L2.89943 7.54941ZM0.0137939 7.84639L0.76819 7.76891L0.934796 9.29271L0.0137939 9.38827V7.84639Z" fill="white"/>
<path fill-rule="evenodd" clip-rule="evenodd" d="M3.48363 12.8977L3.79644 15.7613L2.02907 15.9421L1.60132 12.0269L3.48363 12.8977Z" fill="#CC1277"/>
<path fill-rule="evenodd" clip-rule="evenodd" d="M11.8462 6.64258L8.24071 7.00623L8.41063 8.51155L12.0122 8.13775L11.8462 6.64258ZM7.01144 15.2778L8.77171 15.1004L7.87963 7.04676L6.1167 7.22542L7.01144 15.2778ZM8.59913 10.2297L12.0108 9.88379L12.1714 11.3498L8.75843 11.6945L8.59913 10.2297ZM12.7317 13.1871L8.96951 13.5673L9.13545 15.0624L12.8976 14.6823L12.7317 13.1871Z" fill="white"/>
<path fill-rule="evenodd" clip-rule="evenodd" d="M8.33895 15.144L7.01144 15.2778L6.92383 14.4893L8.33895 15.144Z" fill="#CC1277"/>
<path fill-rule="evenodd" clip-rule="evenodd" d="M14.4462 14.6138L16.1589 14.4278L15.2883 5.97852L13.5757 6.16586L14.4462 14.6138ZM19.517 12.4746L16.3487 12.82L16.5102 14.3892L19.6785 14.0438L19.517 12.4746Z" fill="white"/>
<path fill-rule="evenodd" clip-rule="evenodd" d="M25.4069 5.31396L21.8021 5.67762L21.968 7.17406L25.5728 6.80914L25.4069 5.31396ZM20.5717 13.9493L22.333 13.7706L21.4384 5.7144L19.6785 5.89306L20.5717 13.9493ZM22.1604 8.9011L25.5714 8.55518L25.7334 10.0174L22.3223 10.3621L22.1604 8.9011ZM26.2921 11.8585L22.5307 12.2387L22.698 13.7326L26.4594 13.3524L26.2921 11.8585Z" fill="white"/>
<path fill-rule="evenodd" clip-rule="evenodd" d="M26.8934 11.8527L28.9622 9.81553C30.3544 8.44422 30.5588 8.02405 30.4761 7.21425C30.425 6.70495 29.9795 6.06831 29.3285 6.03266L29.1885 4.65627C30.5272 4.57987 31.4691 5.1974 31.8841 6.18418V8.46332C31.5944 9.12796 31.076 9.69202 30.5454 10.2179L27.486 13.2355L27.0333 13.2852L26.8934 11.8527ZM28.995 6.06194C28.3649 6.23658 27.9466 6.86081 28.0045 7.54019C28.0219 7.70587 28.0497 7.90376 28.0719 8.06156L28.0719 8.06159C28.0869 8.16815 28.0993 8.25642 28.1042 8.30415L26.538 8.2876L26.4723 7.64078C26.3506 6.48339 27.0808 4.94146 28.8563 4.68681L28.995 6.06194ZM28.0385 13.1706L31.8829 12.7441V11.2976L29.707 11.5345L28.0385 13.1706Z" fill="white"/>
<path fill-rule="evenodd" clip-rule="evenodd" d="M5.4102 16.8914L7.94133 16.6064L8.15092 18.7167L5.6198 19.003L5.4102 16.8914ZM4.9528 16.9426L6.08336 28.3121L3.85676 28.5629L2.7262 17.1947L4.9528 16.9426ZM2.20593 17.2707L-0.325195 17.5556L-0.115604 19.6672L2.41552 19.381L2.20593 17.2707Z" fill="#CC1277"/>
<path fill-rule="evenodd" clip-rule="evenodd" d="M15.9775 16.1897L14.6189 23.0577L16.2093 26.7043L18.3222 15.9424L15.9775 16.1897ZM8.82898 16.9446L13.5868 27.8989L16.0289 27.6359L11.2553 16.683L8.82898 16.9446Z" fill="#CC1277"/>
<path fill-rule="evenodd" clip-rule="evenodd" d="M15.5265 18.4699L17.6345 19.4452L18.3222 15.9424L15.9776 16.1897L15.5265 18.4699Z" fill="white"/>
</g>
</svg>
