<svg width="32" height="32" viewBox="0 0 32 32" fill="none" xmlns="http://www.w3.org/2000/svg">
<circle cx="16" cy="16" r="16" fill="url(#paint0_linear)"/>
<path fill-rule="evenodd" clip-rule="evenodd" d="M5.9904 16.2134C7.8608 15.1792 9.94866 14.316 11.8995 13.4484C15.2556 12.0274 18.6251 10.631 22.0285 9.33095C22.6907 9.10944 23.8805 8.89287 23.9972 9.87797C23.9333 11.2724 23.6705 12.6586 23.4903 14.0448C23.0328 17.0933 22.5039 20.1313 21.9883 23.1697C21.8105 24.1817 20.5476 24.7057 19.7395 24.058C17.7973 22.7411 15.8403 21.4371 13.9229 20.0897C13.2948 19.4489 13.8773 18.529 14.4381 18.0715C16.0377 16.489 17.7341 15.1446 19.2501 13.4804C19.6591 12.489 18.4508 13.3245 18.0523 13.5805C15.8624 15.0954 13.7261 16.7027 11.4173 18.0341C10.238 18.6858 8.86346 18.1288 7.68466 17.7652C6.62773 17.3259 5.07893 16.8833 5.99026 16.2135L5.9904 16.2134Z" fill="white"/>
<defs>
<linearGradient id="paint0_linear" x1="12.0019" y1="1.3344" x2="4.00187" y2="20" gradientUnits="userSpaceOnUse">
<stop stop-color="#37AEE2"/>
<stop offset="1" stop-color="#1E96C8"/>
</linearGradient>
</defs>
</svg>
