<svg width="32" height="32" viewBox="0 0 32 32" fill="none" xmlns="http://www.w3.org/2000/svg">
<path fill-rule="evenodd" clip-rule="evenodd" d="M8.30302 26.6998L7.04914 27.7289C6.72603 27.9981 6.24583 27.9545 5.97658 27.6314C5.70732 27.3083 5.75098 26.8281 6.07408 26.5588L9.05263 24.0767H8.80778C7.4568 24.0767 6.36161 22.9815 6.36161 21.6305V9.49214C6.36161 9.06436 6.41885 8.64994 6.5261 8.25614V8.23145H6.5329C7.08363 6.25221 8.89917 4.7998 11.0539 4.7998H20.9462C23.1009 4.7998 24.9165 6.25221 25.4672 8.23145H25.474V8.25614C25.5813 8.64994 25.6385 9.06435 25.6385 9.49214V21.6305C25.6385 22.9815 24.5433 24.0767 23.1923 24.0767H22.9475L25.926 26.5588C26.2491 26.8281 26.2928 27.3083 26.0235 27.6314C25.7543 27.9545 25.2741 27.9981 24.951 27.7289L23.7588 26.6998H8.30302ZM20.9462 6.32289C22.2485 6.32289 23.3673 7.10839 23.8548 8.23145H8.14535C8.6328 7.10839 9.75164 6.32289 11.0539 6.32289H20.9462ZM7.88469 13.4626V21.6305C7.88469 22.1403 8.29797 22.5536 8.80778 22.5536H23.1923C23.7021 22.5536 24.1154 22.1403 24.1154 21.6305V13.6761L23.0494 17.135C22.6694 18.3678 21.5301 19.2089 20.2401 19.2089H11.8258C10.5358 19.2089 9.39648 18.3678 9.01653 17.135L7.88469 13.4626ZM23.7303 9.75453H8.33564L10.4721 16.6864C10.6551 17.2805 11.2041 17.6858 11.8258 17.6858H20.2401C20.8618 17.6858 21.4108 17.2805 21.5938 16.6864L23.7303 9.75453ZM22.6974 25.3302H22.145H9.30269L11.1493 23.7914C11.1656 23.7778 11.1805 23.7631 11.1939 23.7472L11.3464 23.6767H20.6537L20.8062 23.7472C20.8196 23.7631 20.8345 23.7778 20.8508 23.7914L22.6974 25.3302ZM10.1918 21.3711C9.77119 21.3711 9.43024 21.0301 9.43024 20.6095C9.43024 20.189 9.77119 19.848 10.1918 19.848H12.3699C12.7905 19.848 13.1314 20.189 13.1314 20.6095C13.1314 21.0301 12.7905 21.3711 12.3699 21.3711H10.1918ZM18.8687 20.6095C18.8687 21.0301 19.2096 21.3711 19.6302 21.3711H21.8083C22.2289 21.3711 22.5699 21.0301 22.5699 20.6095C22.5699 20.189 22.2289 19.848 21.8083 19.848H19.6302C19.2096 19.848 18.8687 20.189 18.8687 20.6095Z" fill="white"/>
</svg>
