<svg width="48" height="48" viewBox="0 0 48 48" fill="none" xmlns="http://www.w3.org/2000/svg">
<g id="Icons/Persons/User">
<path id="user" fill-rule="evenodd" clip-rule="evenodd" d="M24 42C14.0595 42 6 33.9405 6 24C6 14.0595 14.0595 6 24 6C33.9405 6 42 14.0595 42 24C42 33.9405 33.9405 42 24 42ZM38.0332 31.4439C39.2136 29.2235 39.8824 26.6898 39.8824 24C39.8824 15.229 32.771 8.11765 24 8.11765C15.229 8.11765 8.11765 15.229 8.11765 24C8.11765 26.8159 8.85064 29.4608 10.1362 31.7542C10.1699 31.6861 10.2038 31.62 10.2379 31.5564C12.1833 27.9117 15.5591 25.3749 19.5368 24.2694C17.8588 22.9764 16.7802 20.9717 16.7802 18.7162C16.7802 14.8055 20.0223 11.6475 24.0099 11.6475C27.9963 11.6475 31.2381 14.8058 31.2381 18.7162C31.2381 20.9354 30.194 22.912 28.5621 24.2066C32.5997 25.2659 36.0412 27.7894 38.0332 31.4439ZM12.1053 32.555C14.3068 28.4304 18.6854 25.9438 23.6223 25.7735C23.7506 25.7801 23.8799 25.7835 24.0099 25.7835C24.1739 25.7835 24.3366 25.7781 24.4978 25.7676C29.5206 25.8732 33.9951 28.3722 36.2256 32.5533C36.3761 32.836 36.5295 33.1987 36.6609 33.5901C33.7605 37.4131 29.1684 39.8824 24 39.8824C18.9695 39.8824 14.4849 37.5431 11.5748 33.8931C11.7252 33.3848 11.9174 32.9057 12.1053 32.555ZM24.0099 13.7651C26.8389 13.7651 29.1205 15.9879 29.1205 18.7162C29.1205 21.4441 26.8393 23.6658 24.0099 23.6658C21.1793 23.6658 18.8979 21.4443 18.8979 18.7162C18.8979 15.9877 21.1796 13.7651 24.0099 13.7651Z" fill="white"/>
</g>
</svg>
