<svg width="32" height="32" viewBox="0 0 32 32" fill="none" xmlns="http://www.w3.org/2000/svg">
<circle cx="16" cy="16" r="16" fill="#59267C"/>
<path fill-rule="evenodd" clip-rule="evenodd" d="M22.7781 12.4349L22.7824 12.4518C23.2048 14.3809 23.2048 16.3373 22.7824 18.2665L22.7781 18.2834C22.4364 19.6648 20.8959 21.1471 19.4812 21.4555L19.4653 21.4588C18.3214 21.677 17.169 21.7859 16.0172 21.7859C15.6782 21.7859 15.3391 21.7754 15.0003 21.7564L13.4379 23.3804C13.0512 23.7831 12.371 23.509 12.371 22.9509V21.4089C11.0091 21.02 9.58335 19.6058 9.25577 18.2834L9.25201 18.2665C8.82957 16.3373 8.82957 14.3809 9.25201 12.4518L9.25577 12.4349C9.59795 11.0535 11.1385 9.57119 12.5527 9.26281L12.5691 9.25952C14.8569 8.823 17.177 8.823 19.4653 9.25952L19.4812 9.26281C20.8959 9.57119 22.4364 11.0535 22.7781 12.4349ZM19.2188 20.2154C20.1482 20.0084 21.3179 18.8879 21.546 17.9867C21.9266 16.243 21.9266 14.4753 21.546 12.7315C21.3179 11.8303 20.1487 10.7099 19.2188 10.5029C17.0944 10.0988 14.94 10.0988 12.8151 10.5029C11.8857 10.7099 10.7165 11.8303 10.4879 12.7315C10.1077 14.4753 10.1077 16.2429 10.4879 17.9867C10.7165 18.8879 11.8857 20.0083 12.8151 20.2153L12.8158 20.2154C12.8572 20.2236 12.8874 20.2594 12.8874 20.3016V22.8561C12.8874 22.9838 13.0432 23.0467 13.1319 22.9542L14.3453 21.7089L15.486 20.5379C15.503 20.5205 15.5264 20.511 15.5508 20.5117C16.7759 20.5456 18.0022 20.4467 19.2188 20.2154Z" fill="white"/>
<path d="M18.0388 19.1656C17.8959 19.1222 17.7598 19.0931 17.6333 19.0406C16.323 18.497 15.1171 17.7956 14.1618 16.7205C13.6186 16.1091 13.1934 15.4189 12.834 14.6885C12.6636 14.3421 12.52 13.9821 12.3736 13.6245C12.2401 13.2983 12.4367 12.9614 12.6437 12.7157C12.838 12.4851 13.088 12.3086 13.3588 12.1785C13.5701 12.077 13.7785 12.1356 13.9329 12.3147C14.2665 12.7019 14.5729 13.109 14.8211 13.5578C14.9737 13.8339 14.9318 14.1714 14.6553 14.3593C14.5881 14.405 14.5268 14.4586 14.4642 14.5101C14.4093 14.5553 14.3576 14.601 14.32 14.6622C14.2511 14.7742 14.2479 14.9063 14.2922 15.0281C14.6332 15.9653 15.2081 16.6941 16.1514 17.0867C16.3024 17.1495 16.454 17.2226 16.6279 17.2023C16.9191 17.1683 17.0134 16.8488 17.2175 16.6819C17.417 16.5188 17.6719 16.5167 17.8868 16.6526C18.1017 16.7887 18.3101 16.9347 18.5172 17.0823C18.7205 17.2271 18.9229 17.3688 19.1104 17.5339C19.2907 17.6927 19.3528 17.901 19.2513 18.1165C19.0654 18.5112 18.7949 18.8395 18.4048 19.0491C18.2946 19.1082 18.163 19.1273 18.0388 19.1656C18.163 19.1273 17.8959 19.1222 18.0388 19.1656Z" fill="white"/>
<path d="M16.0208 11.7273C17.7347 11.7753 19.1425 12.9127 19.4441 14.6072C19.4955 14.8959 19.5138 15.1911 19.5367 15.4841C19.5463 15.6074 19.4765 15.7245 19.3435 15.7261C19.2061 15.7278 19.1443 15.6128 19.1354 15.4896C19.1177 15.2457 19.1055 15.0007 19.0719 14.7589C18.8944 13.4821 17.8763 12.4258 16.6055 12.1991C16.4143 12.165 16.2185 12.1561 16.0248 12.1357C15.9024 12.1229 15.742 12.1155 15.7149 11.9632C15.6921 11.8356 15.7998 11.734 15.9213 11.7275C15.9544 11.7256 15.9876 11.7271 16.0208 11.7273C15.9876 11.7271 17.7347 11.7753 16.0208 11.7273Z" fill="white"/>
<path d="M18.6255 15.1043C18.6227 15.1257 18.6212 15.176 18.6086 15.2234C18.5632 15.3955 18.3023 15.417 18.2422 15.2434C18.2244 15.1918 18.2217 15.1332 18.2216 15.0777C18.221 14.7147 18.1421 14.3521 17.9591 14.0362C17.7709 13.7116 17.4834 13.4387 17.1462 13.2736C16.9423 13.1737 16.7218 13.1117 16.4983 13.0747C16.4006 13.0585 16.3019 13.0487 16.2038 13.0351C16.0848 13.0186 16.0213 12.9427 16.027 12.8255C16.0322 12.7157 16.1125 12.6367 16.2322 12.6435C16.6255 12.6658 17.0054 12.7508 17.3551 12.936C18.0662 13.3126 18.4724 13.907 18.591 14.7007C18.5963 14.7367 18.605 14.7723 18.6077 14.8084C18.6144 14.8975 18.6186 14.9868 18.6255 15.1043C18.6186 14.9868 18.6227 15.1257 18.6255 15.1043Z" fill="white"/>
<path d="M17.5593 15.0623C17.4159 15.0649 17.3392 14.9855 17.3244 14.8541C17.3141 14.7624 17.306 14.6695 17.2841 14.5803C17.241 14.4047 17.1477 14.2419 16.9999 14.1343C16.9302 14.0834 16.8511 14.0464 16.7683 14.0225C16.6631 13.9921 16.5539 14.0005 16.449 13.9748C16.335 13.9468 16.272 13.8546 16.2899 13.7476C16.3062 13.6503 16.4008 13.5744 16.5072 13.5821C17.1717 13.6301 17.6466 13.9736 17.7144 14.7559C17.7191 14.8111 17.7248 14.8694 17.7125 14.9222C17.6915 15.0126 17.6246 15.0579 17.5593 15.0623C17.6246 15.0579 17.4159 15.0649 17.5593 15.0623Z" fill="white"/>
</svg>
