<svg width="32" height="32" viewBox="0 0 32 32" fill="none" xmlns="http://www.w3.org/2000/svg">
<path fill-rule="evenodd" clip-rule="evenodd" d="M7.10826 23.2948C2.20606 18.3172 2.20606 10.2182 7.10826 5.24111C7.38812 4.95697 7.38812 4.49723 7.10826 4.2131C6.8284 3.92897 6.37558 3.92897 6.09572 4.2131C0.634759 9.75749 0.634759 18.7784 6.09572 24.3228C6.23239 24.4608 6.41416 24.5358 6.60199 24.5358C6.79007 24.5358 6.97246 24.4607 7.10826 24.3228C7.38812 24.0387 7.38812 23.5789 7.10826 23.2948ZM9.12261 22.2782C9.40246 21.994 9.40246 21.5343 9.12261 21.2502C5.33058 17.4002 5.33058 11.1357 9.12261 7.28526C9.40246 7.00112 9.40246 6.54139 9.12261 6.25726C8.84275 5.97312 8.38993 5.97312 8.11007 6.25726C3.75927 10.6745 3.75927 17.8614 8.11008 22.2782C8.24596 22.4161 8.42793 22.4911 8.61634 22.4911C8.80474 22.4911 8.98672 22.4161 9.12261 22.2782ZM11.136 8.3019C11.4153 8.5862 11.4153 9.04608 11.136 9.33038C8.45414 12.0532 8.45414 16.4832 11.136 19.206C11.4159 19.4901 11.4159 19.9499 11.136 20.234C11.0001 20.372 10.8181 20.447 10.6297 20.447C10.4413 20.447 10.2594 20.372 10.1234 20.234C8.55627 18.6424 7.69288 16.5232 7.69288 14.268C7.69288 12.0125 8.5564 9.89291 10.1235 8.3019C10.4033 8.01776 10.8561 8.01776 11.136 8.3019ZM24.8917 23.2948C29.7939 18.3172 29.7939 10.2182 24.8917 5.24111C24.6119 4.95697 24.6119 4.49723 24.8917 4.2131C25.1716 3.92897 25.6244 3.92897 25.9043 4.2131C31.3652 9.75749 31.3652 18.7784 25.9043 24.3228C25.7676 24.4608 25.5858 24.5358 25.398 24.5358C25.2099 24.5358 25.0275 24.4607 24.8917 24.3228C24.6119 24.0387 24.6119 23.5789 24.8917 23.2948ZM22.8774 21.2502C22.5975 21.5343 22.5975 21.994 22.8774 22.2782C23.0133 22.4161 23.1953 22.4911 23.3837 22.4911C23.5721 22.4911 23.754 22.4161 23.8899 22.2782C28.2407 17.8614 28.2407 10.6745 23.8899 6.25726C23.6101 5.97312 23.1573 5.97312 22.8774 6.25726C22.5975 6.54139 22.5975 7.00112 22.8774 7.28526C26.6694 11.1357 26.6694 17.4002 22.8774 21.2502ZM20.864 9.33038C20.5847 9.04608 20.5847 8.5862 20.864 8.3019C21.1439 8.01776 21.5967 8.01776 21.8765 8.3019C23.4436 9.89291 24.3071 12.0125 24.3071 14.268C24.3071 16.5232 23.4437 18.6424 21.8766 20.234C21.7406 20.372 21.5587 20.447 21.3703 20.447C21.1819 20.447 20.9999 20.372 20.864 20.234C20.5841 19.9499 20.5841 19.4901 20.864 19.206C23.5459 16.4832 23.5459 12.0532 20.864 9.33038ZM12.4354 14.3648C12.4354 12.3699 14.0343 10.7465 15.9993 10.7465C17.9645 10.7465 19.5631 12.3697 19.5631 14.3648C19.5631 16.0939 18.3535 17.565 16.7153 17.9054V28.273C16.7153 28.6749 16.3951 29 15.9993 29C15.6035 29 15.2832 28.6749 15.2832 28.273V17.9054C13.6451 17.565 12.4354 16.0939 12.4354 14.3648ZM13.6822 14.3432C13.6822 15.6408 14.7217 16.6961 15.9997 16.6961C17.2778 16.6961 18.3173 15.6408 18.3173 14.3432C18.3173 13.0456 17.2778 11.9903 15.9997 11.9903C14.7217 11.9903 13.6822 13.0456 13.6822 14.3432Z" fill="white"/>
</svg>
