<svg width="32" height="32" viewBox="0 0 32 32" fill="none" xmlns="http://www.w3.org/2000/svg">
<circle cx="16" cy="16" r="16" fill="#E2E2E2"/>
<path fill-rule="evenodd" clip-rule="evenodd" d="M21.9792 14.1862C21.9921 14.0133 21.9991 13.8401 22 13.6668C22 10.169 19.1645 7.3335 15.6667 7.3335C12.1689 7.3335 9.33337 10.169 9.33337 13.6668C9.33337 17.1646 12.1689 20.0002 15.6667 20.0002V26.4059L18.4932 22.0666C18.602 21.8858 18.7118 21.7043 18.8219 21.5222C20.2757 19.1186 21.7858 16.6219 21.9792 14.1862ZM15.6667 16.3811C17.1658 16.3811 18.381 15.1659 18.381 13.6668C18.381 12.1677 17.1658 10.9525 15.6667 10.9525C14.1676 10.9525 12.9524 12.1677 12.9524 13.6668C12.9524 15.1659 14.1676 16.3811 15.6667 16.3811Z" fill="#FF3333"/>
</svg>
