<svg width="32" height="32" viewBox="0 0 32 32" fill="none" xmlns="http://www.w3.org/2000/svg">
<circle cx="16" cy="16" r="16" fill="#FC0D1C"/>
<path fill-rule="evenodd" clip-rule="evenodd" d="M21.3251 20.975C22.0696 20.8919 22.6883 20.3341 22.8626 19.5778C23.1105 18.5006 23.1111 17.3248 23.1111 16.2159V16.1887C23.1112 15.0878 23.1112 13.9224 22.8653 12.854C22.6914 12.0975 22.0727 11.5397 21.3278 11.4564C19.5646 11.2594 17.7796 11.2584 16.0026 11.2594C14.2252 11.2584 12.4402 11.2594 10.6764 11.4564C9.93186 11.5397 9.31364 12.0977 9.13971 12.854C8.8918 13.9309 8.88892 15.107 8.88892 16.2159C8.88892 17.3248 8.88892 18.5004 9.13682 19.5778C9.31075 20.3341 9.92897 20.8919 10.6735 20.975C12.4373 21.1722 14.2223 21.1732 15.9997 21.1722C17.7771 21.1732 19.5617 21.1722 21.3251 20.975ZM16.1787 17.3793C15.5084 17.7267 14.8379 18.0743 14.1648 18.4234V13.7201C14.9831 14.1472 15.7986 14.5726 16.6158 14.9989C17.3039 15.3578 17.9931 15.7174 18.6863 16.0791C17.8477 16.514 17.0134 16.9465 16.1787 17.3793Z" fill="#FEFEFE"/>
</svg>
