<svg width="32" height="32" viewBox="0 0 32 32" fill="none" xmlns="http://www.w3.org/2000/svg">
<rect width="32" height="32" rx="14" fill="#C1C9DA"/>
<mask id="mask0" mask-type="alpha" maskUnits="userSpaceOnUse" x="0" y="0" width="32" height="32">
<rect width="32" height="32" rx="14" fill="white"/>
</mask>
<g mask="url(#mask0)">
<path fill-rule="evenodd" clip-rule="evenodd" d="M5.27191 7.30664L3.26196 7.51326L3.42857 9.03447L5.43851 8.83173L5.27191 7.30664ZM2.89943 7.54941L3.79644 15.7611L2.02907 15.9419L1.13206 7.73149L2.89943 7.54941ZM0.0137939 7.84639L0.76819 7.76891L0.934796 9.29271L0.0137939 9.38827V7.84639Z" fill="white"/>
<path fill-rule="evenodd" clip-rule="evenodd" d="M3.48363 12.8973L3.79644 15.7608L2.02907 15.9416L1.60132 12.0264L3.48363 12.8973Z" fill="white"/>
<path fill-rule="evenodd" clip-rule="evenodd" d="M11.8462 6.64258L8.24071 7.00623L8.41063 8.51155L12.0122 8.13775L11.8462 6.64258ZM7.01144 15.2778L8.77171 15.1004L7.87963 7.04676L6.1167 7.22542L7.01144 15.2778ZM8.59913 10.2297L12.0108 9.88379L12.1714 11.3498L8.75843 11.6945L8.59913 10.2297ZM12.7317 13.1871L8.96951 13.5673L9.13545 15.0624L12.8976 14.6823L12.7317 13.1871Z" fill="white"/>
<path fill-rule="evenodd" clip-rule="evenodd" d="M8.33895 15.144L7.01144 15.2778L6.92383 14.4893L8.33895 15.144Z" fill="white"/>
<path fill-rule="evenodd" clip-rule="evenodd" d="M14.4462 14.6128L16.1589 14.4268L15.2883 5.97754L13.5757 6.16489L14.4462 14.6128ZM19.517 12.4736L16.3487 12.8191L16.5102 14.3883L19.6785 14.0428L19.517 12.4736Z" fill="white"/>
<path fill-rule="evenodd" clip-rule="evenodd" d="M25.4069 5.31348L21.8021 5.67713L21.968 7.17357L25.5728 6.80865L25.4069 5.31348ZM20.5717 13.9488L22.333 13.7701L21.4384 5.71391L19.6785 5.89257L20.5717 13.9488ZM22.1604 8.90061L25.5714 8.55469L25.7334 10.0169L22.3223 10.3616L22.1604 8.90061ZM26.2921 11.858L22.5307 12.2382L22.698 13.7321L26.4594 13.3519L26.2921 11.858Z" fill="white"/>
<path fill-rule="evenodd" clip-rule="evenodd" d="M26.8934 11.8523L28.9622 9.81504C30.3544 8.44373 30.5588 8.02356 30.4761 7.21376C30.425 6.70446 29.9795 6.06783 29.3285 6.03217L29.1885 4.65578C30.5272 4.57938 31.4691 5.19691 31.8841 6.18369V8.46283C31.5944 9.12748 31.076 9.69153 30.5454 10.2174L27.486 13.235L27.0333 13.2847L26.8934 11.8523ZM28.995 6.06145C28.3649 6.23609 27.9466 6.86032 28.0045 7.53971C28.0219 7.70539 28.0497 7.90327 28.0719 8.06107L28.0719 8.0611C28.0869 8.16766 28.0993 8.25593 28.1042 8.30366L26.538 8.28711L26.4723 7.64029C26.3506 6.4829 27.0808 4.94098 28.8563 4.68632L28.995 6.06145ZM28.0385 13.1701L31.8829 12.7436V11.2971L29.707 11.534L28.0385 13.1701Z" fill="white"/>
<path fill-rule="evenodd" clip-rule="evenodd" d="M5.4102 16.8904L7.94133 16.6055L8.15092 18.7158L5.6198 19.002L5.4102 16.8904ZM4.9528 16.9416L6.08336 28.3111L3.85676 28.562L2.7262 17.1937L4.9528 16.9416ZM2.20593 17.2697L-0.325195 17.5547L-0.115604 19.6663L2.41552 19.38L2.20593 17.2697Z" fill="white"/>
<path fill-rule="evenodd" clip-rule="evenodd" d="M15.9775 16.1887L14.6189 23.0567L16.2093 26.7033L18.3222 15.9414L15.9775 16.1887ZM8.82898 16.9437L13.5868 27.8979L16.0289 27.6349L11.2553 16.682L8.82898 16.9437Z" fill="white"/>
<path fill-rule="evenodd" clip-rule="evenodd" d="M15.5265 18.4689L17.6345 19.4442L18.3222 15.9414L15.9776 16.1887L15.5265 18.4689Z" fill="white"/>
</g>
</svg>
