<svg width="32" height="32" viewBox="0 0 32 32" fill="none" xmlns="http://www.w3.org/2000/svg">
<circle cx="16" cy="16" r="16" fill="#C1C9DA"/>
<path fill-rule="evenodd" clip-rule="evenodd" d="M22.4415 12.2508L22.4456 12.2674C22.8618 14.1681 22.8618 16.0955 22.4456 17.9962L22.4415 18.0129C22.1048 19.3739 20.5871 20.8343 19.1933 21.1381L19.1776 21.1413C18.0506 21.3564 16.9153 21.4636 15.7804 21.4636C15.4464 21.4636 15.1124 21.4532 14.7786 21.4346L13.2393 23.0346C12.8583 23.4313 12.1882 23.1613 12.1882 22.6114V21.0922C10.8464 20.709 9.44169 19.3157 9.11895 18.0128L9.11525 17.9962C8.69905 16.0955 8.69905 14.1681 9.11525 12.2674L9.11895 12.2508C9.45607 10.8898 10.9738 9.42942 12.3672 9.1256L12.3833 9.12236C14.6373 8.69229 16.9231 8.69229 19.1776 9.12236L19.1933 9.1256C20.5871 9.42942 22.1048 10.8898 22.4415 12.2508ZM18.9348 19.9163C19.8504 19.7123 21.0028 18.6085 21.2276 17.7206C21.6026 16.0026 21.6026 14.261 21.2276 12.543C21.0028 11.6551 19.8509 10.5513 18.9348 10.3473C16.8418 9.94916 14.7191 9.94916 12.6257 10.3473C11.71 10.5513 10.5581 11.6551 10.3329 12.543C9.95829 14.261 9.95829 16.0025 10.3329 17.7205C10.5581 18.6084 11.71 19.7123 12.6257 19.9162L12.6264 19.9163C12.6672 19.9243 12.6969 19.9597 12.6969 20.0013V22.518C12.6969 22.6437 12.8504 22.7057 12.9378 22.6146L14.1332 21.3877L15.2571 20.234C15.2738 20.2168 15.2969 20.2075 15.3209 20.2082C16.5279 20.2416 17.7361 20.1442 18.9348 19.9163Z" fill="white"/>
<path d="M17.7723 18.8819C17.6315 18.8392 17.4974 18.8105 17.3728 18.7588C16.0818 18.2232 14.8937 17.5322 13.9526 16.473C13.4174 15.8706 12.9985 15.1906 12.6445 14.4709C12.4765 14.1297 12.335 13.775 12.1908 13.4227C12.0593 13.1014 12.253 12.7694 12.457 12.5273C12.6484 12.3001 12.8947 12.1263 13.1614 11.9981C13.3696 11.8981 13.575 11.9558 13.727 12.1322C14.0557 12.5137 14.3577 12.9148 14.6022 13.357C14.7525 13.629 14.7113 13.9615 14.4388 14.1466C14.3726 14.1916 14.3122 14.2444 14.2505 14.2953C14.1964 14.3398 14.1455 14.3848 14.1084 14.4451C14.0406 14.5554 14.0374 14.6856 14.081 14.8055C14.417 15.7289 14.9834 16.447 15.9128 16.8337C16.0615 16.8956 16.2109 16.9676 16.3822 16.9477C16.6692 16.9141 16.7621 16.5994 16.9632 16.4349C17.1597 16.2742 17.4109 16.2721 17.6226 16.4061C17.8343 16.5401 18.0396 16.684 18.2436 16.8294C18.4439 16.9721 18.6433 17.1117 18.8281 17.2744C19.0057 17.4308 19.0669 17.6361 18.9668 17.8484C18.7837 18.2372 18.5173 18.5607 18.1329 18.7671C18.0243 18.8254 17.8947 18.8442 17.7723 18.8819C17.6315 18.8391 17.8947 18.8442 17.7723 18.8819Z" fill="white"/>
<path d="M15.7839 11.5534C17.4725 11.6007 18.8595 12.7214 19.1567 14.3908C19.2073 14.6753 19.2253 14.9661 19.2479 15.2548C19.2573 15.3762 19.1886 15.4916 19.0575 15.4932C18.9222 15.4948 18.8613 15.3815 18.8525 15.2602C18.8351 15.0199 18.823 14.7785 18.7899 14.5402C18.6151 13.2823 17.6121 12.2416 16.36 12.0183C16.1716 11.9847 15.9788 11.9759 15.7879 11.9559C15.6673 11.9432 15.5092 11.9359 15.4825 11.7859C15.4601 11.6602 15.5662 11.5601 15.6859 11.5536C15.7185 11.5518 15.7512 11.5533 15.7839 11.5534C17.4725 11.6007 15.7512 11.5533 15.7839 11.5534Z" fill="white"/>
<path d="M18.3501 14.8809C18.3474 14.902 18.3459 14.9516 18.3335 14.9983C18.2887 15.1678 18.0317 15.189 17.9725 15.0179C17.955 14.9672 17.9524 14.9094 17.9523 14.8547C17.9517 14.4971 17.8739 14.1398 17.6936 13.8286C17.5082 13.5088 17.2249 13.2399 16.8927 13.0772C16.6918 12.9789 16.4746 12.9177 16.2544 12.8813C16.1582 12.8654 16.0609 12.8557 15.9642 12.8423C15.847 12.826 15.7845 12.7513 15.79 12.6358C15.7952 12.5276 15.8743 12.4498 15.9922 12.4565C16.3797 12.4785 16.754 12.5622 17.0985 12.7446C17.7991 13.1157 18.1993 13.7013 18.3162 14.4833C18.3214 14.5187 18.3299 14.5538 18.3326 14.5894C18.3392 14.6772 18.3434 14.7651 18.3501 14.8809C18.3474 14.902 18.3434 14.7651 18.3501 14.8809Z" fill="white"/>
<path d="M17.2999 14.8398C17.1586 14.8423 17.083 14.7641 17.0685 14.6346C17.0583 14.5442 17.0503 14.4527 17.0288 14.3649C16.9863 14.1918 16.8944 14.0314 16.7488 13.9254C16.6801 13.8753 16.6022 13.8388 16.5206 13.8153C16.417 13.7854 16.3094 13.7936 16.206 13.7683C16.0937 13.7408 16.0316 13.6498 16.0492 13.5445C16.0653 13.4486 16.1586 13.3738 16.2633 13.3814C16.918 13.4287 17.3859 13.7671 17.4527 14.5378C17.4574 14.5922 17.4629 14.6497 17.4509 14.7017C17.4302 14.7908 17.3642 14.8354 17.2999 14.8398C17.1586 14.8423 17.3642 14.8354 17.2999 14.8398Z" fill="white"/>
</svg>
