<svg width="32" height="32" viewBox="0 0 32 32" fill="none" xmlns="http://www.w3.org/2000/svg">
<circle cx="16" cy="16" r="16" fill="#C1C9DA"/>
<path d="M20.2327 17.3021C20.697 17.7556 21.1882 18.1824 21.605 18.6828C21.7897 18.9041 21.9637 19.133 22.0962 19.3904C22.2854 19.7575 22.1146 20.1601 21.786 20.1819L19.7452 20.1815C19.2181 20.2251 18.7987 20.0125 18.4451 19.6521C18.1628 19.365 17.9009 19.0582 17.629 18.7613C17.5179 18.6394 17.4009 18.5246 17.2615 18.4343C16.9833 18.2534 16.7416 18.3088 16.5822 18.5994C16.4197 18.8952 16.3826 19.2229 16.3671 19.5521C16.3449 20.0333 16.1998 20.159 15.717 20.1817C14.6852 20.23 13.7063 20.0734 12.7965 19.5533C11.9939 19.0945 11.3726 18.447 10.8313 17.7139C9.77715 16.2847 8.96983 14.7161 8.24445 13.1025C8.08119 12.7391 8.20063 12.5447 8.60153 12.5371C9.26761 12.5243 9.93368 12.5259 10.5997 12.5365C10.8708 12.5408 11.0502 12.6959 11.1543 12.9517C11.5143 13.8373 11.9555 14.6798 12.5085 15.4613C12.6558 15.6694 12.8063 15.8769 13.0205 16.0238C13.2569 16.186 13.4371 16.1324 13.5486 15.8685C13.6199 15.7008 13.6507 15.5214 13.6662 15.3416C13.7192 14.7259 13.7255 14.1104 13.6338 13.4971C13.5767 13.1133 13.3608 12.8655 12.9783 12.7929C12.7834 12.756 12.812 12.6839 12.9067 12.5726C13.0712 12.3802 13.2253 12.2611 13.5333 12.2611L15.8391 12.2607C16.2025 12.3321 16.284 12.4951 16.3333 12.8612L16.3353 15.4236C16.3311 15.5652 16.4065 15.9851 16.6608 16.0778C16.8647 16.1451 16.9992 15.9816 17.1211 15.8526C17.674 15.2658 18.068 14.5732 18.4208 13.8564C18.5765 13.5403 18.7108 13.2132 18.8413 12.8854C18.9383 12.6431 19.0891 12.5239 19.3626 12.5279L21.583 12.5306C21.6484 12.5306 21.7149 12.5312 21.7797 12.5424C22.1539 12.6064 22.2564 12.7674 22.1406 13.1325C21.9584 13.706 21.6044 14.1838 21.2583 14.6627C20.8874 15.1755 20.4918 15.6704 20.1245 16.1854C19.787 16.6562 19.8137 16.8933 20.2327 17.3021Z" fill="#FEFEFE"/>
</svg>
