<svg width="32" height="32" viewBox="0 0 32 32" fill="none" xmlns="http://www.w3.org/2000/svg">
<circle cx="16" cy="16" r="16" fill="#C1C9DA"/>
<path fill-rule="evenodd" clip-rule="evenodd" d="M23.6454 15.5606C23.6454 19.8015 20.1811 23.2394 15.9069 23.2394C14.55 23.2394 13.2752 22.8926 12.1662 22.2839L7.88184 23.6454L9.27866 19.5255C8.57403 18.3684 8.16821 17.0114 8.16821 15.5606C8.16821 11.3197 11.6329 7.88184 15.9069 7.88184C20.1814 7.88184 23.6454 11.3197 23.6454 15.5606ZM15.9069 9.10471C12.3191 9.10471 9.40075 12.0008 9.40075 15.5606C9.40075 16.9732 9.86122 18.2814 10.6401 19.3456L9.82724 21.7432L12.3275 20.9486C13.3548 21.6231 14.5854 22.0165 15.9071 22.0165C19.4943 22.0165 22.4132 19.1207 22.4132 15.5609C22.4132 12.0012 19.4945 9.10471 15.9069 9.10471ZM19.5538 17.1594C19.6865 17.223 19.7761 17.266 19.8147 17.3291C19.8618 17.4076 19.8618 17.7844 19.7042 18.2243C19.5455 18.6636 18.7709 19.0875 18.4235 19.1188C18.3639 19.1242 18.3145 19.1361 18.2639 19.1482C18.019 19.207 17.7453 19.2727 16.147 18.6484C14.3649 17.9519 13.1903 16.2231 12.9475 15.8658C12.9276 15.8365 12.9139 15.8164 12.9067 15.8069L12.9064 15.8065C12.8101 15.6795 12.1322 14.7856 12.1322 13.8605C12.1322 12.994 12.5611 12.5396 12.7586 12.3303C12.7722 12.3159 12.7847 12.3027 12.7959 12.2906C12.9698 12.1023 13.1754 12.0552 13.3019 12.0552C13.3672 12.0552 13.4326 12.0594 13.4958 12.0635C13.5549 12.0673 13.6121 12.0709 13.6655 12.0709C13.6787 12.0709 13.6927 12.07 13.7072 12.0691C13.8141 12.0622 13.9531 12.0533 14.0922 12.3848C14.1428 12.5056 14.2162 12.6829 14.2942 12.8711C14.4594 13.27 14.645 13.7181 14.6772 13.782C14.7248 13.8764 14.7565 13.9862 14.6929 14.1118C14.6839 14.1299 14.6755 14.1469 14.6675 14.1633C14.6197 14.2607 14.5849 14.3316 14.5034 14.4258C14.472 14.4622 14.4396 14.5014 14.4071 14.5406C14.3415 14.6198 14.2759 14.699 14.2188 14.7555C14.124 14.8492 14.0251 14.9509 14.1356 15.1392C14.2463 15.3279 14.6271 15.9437 15.1909 16.4425C15.7974 16.9791 16.3244 17.2059 16.5912 17.3208C16.6431 17.3432 16.6852 17.3613 16.7161 17.3766C16.9059 17.4708 17.0165 17.4551 17.1272 17.3291C17.238 17.2036 17.6016 16.7799 17.7279 16.5914C17.8542 16.4031 17.981 16.4346 18.1549 16.4973C18.3283 16.5599 19.2612 17.0154 19.4511 17.1095C19.4877 17.1277 19.522 17.1441 19.5538 17.1594Z" fill="white"/>
</svg>
