<svg width="32" height="32" viewBox="0 0 32 32" fill="none" xmlns="http://www.w3.org/2000/svg">
<circle cx="16" cy="16" r="16" fill="#C1C9DA"/>
<path fill-rule="evenodd" clip-rule="evenodd" d="M21.9792 14.1857C21.9921 14.0129 21.9991 13.8396 22 13.6663C22 10.1685 19.1645 7.33301 15.6667 7.33301C12.1689 7.33301 9.33337 10.1685 9.33337 13.6663C9.33337 17.1641 12.1689 19.9997 15.6667 19.9997V26.4054L18.4932 22.0662C18.602 21.8853 18.7118 21.7038 18.8219 21.5218C20.2757 19.1181 21.7858 16.6214 21.9792 14.1857ZM15.6667 16.3806C17.1658 16.3806 18.381 15.1654 18.381 13.6663C18.381 12.1673 17.1658 10.952 15.6667 10.952C14.1676 10.952 12.9524 12.1673 12.9524 13.6663C12.9524 15.1654 14.1676 16.3806 15.6667 16.3806Z" fill="white"/>
</svg>
