<svg width="32" height="32" viewBox="0 0 32 32" fill="none" xmlns="http://www.w3.org/2000/svg">
<circle cx="16" cy="16" r="16" fill="#C1C9DA"/>
<path fill-rule="evenodd" clip-rule="evenodd" d="M21.3251 20.9755C22.0696 20.8924 22.6883 20.3346 22.8626 19.5783C23.1105 18.5011 23.1111 17.3253 23.1111 16.2164V16.1892C23.1112 15.0883 23.1112 13.9228 22.8653 12.8545C22.6914 12.098 22.0727 11.5401 21.3278 11.4569C19.5646 11.2599 17.7796 11.2589 16.0026 11.2599C14.2252 11.2589 12.4402 11.2599 10.6764 11.4569C9.93186 11.5401 9.31364 12.0982 9.13971 12.8545C8.8918 13.9314 8.88892 15.1075 8.88892 16.2164C8.88892 17.3253 8.88892 18.5009 9.13682 19.5783C9.31075 20.3346 9.92897 20.8924 10.6735 20.9755C12.4373 21.1727 14.2223 21.1737 15.9997 21.1727C17.7771 21.1737 19.5617 21.1727 21.3251 20.9755ZM16.1787 17.3797C15.5084 17.7272 14.8379 18.0748 14.1648 18.4239V13.7206C14.9831 14.1477 15.7986 14.5731 16.6158 14.9994C17.3039 15.3583 17.9931 15.7179 18.6863 16.0796C17.8477 16.5145 17.0134 16.947 16.1787 17.3797Z" fill="#FEFEFE"/>
</svg>
